<svg version="1.0" xmlns="http://www.w3.org/2000/svg" width="540" height="532" viewBox="0 0 540.000000 532.000000" preserveAspectRatio="xMidYMid meet">

<g transform="translate(0.000000,532.000000) scale(0.100000,-0.100000)" fill="#4464e4" stroke="none">

<path d="M1255 5303 c-11 -3 -28 -12 -37 -21 -17 -14 -18 -60 -18 -689 l0
-673 -521 0 -521 0 -49 -27 c-56 -30 -85 -70 -95 -130 -13 -81 30 -158 110
-198 l50 -25 833 0 c458 0 833 -2 833 -5 0 -9 -470 -820 -525 -906 -51 -78
-109 -122 -192 -145 -49 -13 -124 -15 -508 -12 -449 3 -450 3 -492 -19 -139
-74 -134 -266 9 -337 l52 -26 470 0 c532 0 557 3 693 70 88 43 172 113 226
188 36 50 188 307 329 557 47 83 127 224 178 315 51 91 153 271 225 400 72
129 208 370 302 535 93 165 199 352 234 415 l64 115 3 286 c4 363 20 334 -181
334 -107 0 -148 -3 -160 -14 -15 -12 -17 -40 -17 -222 0 -114 -5 -230 -11
-258 -9 -44 -147 -293 -454 -823 l-39 -68 -237 0 -236 0 -7 108 c-4 59 -6 360
-5 670 l3 562 -22 23 c-21 20 -33 22 -145 24 -67 1 -131 -1 -142 -4z" fill="#4464e4"></path>
<path d="M3283 5303 c-56 -11 -53 65 -53 -1364 l0 -1317 -432 -5 c-477 -4
-485 -5 -623 -71 -113 -54 -198 -127 -287 -247 -72 -97 -116 -228 -266 -784
l-19 -70 -282 -3 -282 -2 -54 58 c-251 271 -696 133 -748 -233 -19 -130 22
-252 116 -352 60 -64 116 -98 193 -118 195 -51 392 36 500 221 l26 44 204 0
c130 0 204 -4 204 -10 0 -6 -22 -90 -50 -188 -27 -97 -69 -246 -92 -331 l-43
-153 -542 1 c-352 1 -559 -3 -590 -9 -170 -39 -206 -249 -58 -344 l39 -26 715
2 714 3 8 25 c4 14 42 153 84 310 71 263 158 571 235 830 17 58 73 251 124
430 52 179 104 351 116 383 27 72 72 131 135 179 88 67 94 68 545 68 l405 1 6
-473 c5 -453 6 -476 28 -548 105 -351 411 -655 825 -820 163 -64 345 -99 564
-107 89 -3 162 -9 162 -14 0 -19 100 -105 150 -128 45 -21 70 -26 135 -26 69
0 89 4 138 30 64 32 115 82 147 144 29 57 29 244 1 299 -27 52 -97 117 -156
144 -77 35 -190 32 -269 -6 -32 -16 -68 -38 -79 -49 -19 -19 -29 -20 -191 -14
-253 8 -413 45 -601 140 -208 104 -359 249 -443 424 l-37 78 -5 1978 -5 1979
-28 24 c-26 23 -35 24 -145 23 -64 -1 -127 -4 -139 -6z" fill="#4464e4"></path>
<path d="M4085 5303 c-11 -3 -28 -12 -37 -21 -16 -14 -18 -43 -18 -329 0 -266
-2 -313 -14 -313 -30 0 -135 -111 -167 -175 -57 -116 -50 -270 18 -379 122
-197 387 -256 577 -128 236 158 240 512 7 663 l-51 32 0 294 c0 317 -4 344
-52 357 -27 7 -233 6 -263 -1z" fill="#4464e4"></path>
<path d="M392 5105 c-339 -75 -390 -537 -76 -691 52 -26 69 -29 149 -29 69 1
103 6 147 24 81 31 158 104 194 183 26 56 29 74 29 163 0 89 -3 105 -27 151
-35 66 -70 108 -122 143 -83 58 -193 78 -294 56z" fill="#4464e4"></path>
<path d="M2061 5085 c-117 -37 -175 -177 -118 -286 79 -150 297 -140 368 16
52 113 -17 248 -141 274 -60 13 -54 13 -109 -4z" fill="#4464e4"></path>
<path d="M4996 5065 c-139 -39 -229 -179 -213 -331 15 -146 147 -264 294 -264
278 0 416 324 221 519 -77 78 -194 107 -302 76z" fill="#4464e4"></path>
<path d="M5009 3746 c-92 -24 -170 -86 -206 -162 l-15 -31 -182 -6 c-185 -5
-231 -14 -312 -55 -86 -44 -168 -129 -208 -215 -52 -112 -50 -78 -53 -871 -3
-621 -1 -751 11 -817 36 -190 147 -327 323 -397 l68 -27 415 -3 c442 -4 465
-2 520 44 l30 26 0 112 c0 109 -1 113 -27 139 -59 56 -70 57 -476 57 -367 0
-373 0 -417 23 -85 43 -80 -2 -80 790 0 680 1 699 20 737 35 69 72 80 260 80
l160 0 50 -34 c69 -47 112 -61 200 -61 116 0 207 48 281 149 29 39 29 40 29
186 0 143 -1 147 -28 191 -48 75 -113 120 -207 145 -61 17 -96 17 -156 0z" fill="#4464e4"></path>
<path d="M2582 3487 c-89 -33 -146 -119 -146 -222 1 -74 26 -128 86 -179 118
-102 307 -59 370 84 53 121 -4 264 -124 314 -43 19 -139 20 -186 3z" fill="#4464e4"></path>
<path d="M885 3263 c-82 -18 -137 -60 -172 -131 -48 -98 -34 -198 38 -272 51
-52 99 -73 169 -73 186 -1 302 191 214 353 -33 61 -70 92 -137 114 -47 16 -73
18 -112 9z" fill="#4464e4"></path>
<path d="M4977 2640 c-100 -39 -163 -112 -186 -215 -54 -242 187 -437 415
-336 62 28 128 94 155 154 30 69 31 172 1 239 -62 142 -240 215 -385 158z" fill="#4464e4"></path>
<path d="M2637 1789 c-58 -14 -92 -34 -131 -81 -67 -78 -66 -58 -69 -926 l-2
-782 183 0 182 0 0 679 0 679 35 48 c60 84 75 119 75 176 -1 101 -55 174 -152
203 -57 17 -66 17 -121 4z" fill="#4464e4"></path>
<path d="M2010 428 c-158 -45 -194 -260 -59 -358 75 -54 175 -49 246 13 73 64
91 153 49 243 -26 57 -61 86 -121 103 -47 13 -68 13 -115 -1z" fill="#4464e4"></path>
<path d="M3201 425 c-57 -18 -106 -66 -126 -123 -18 -54 -19 -74 -4 -125 38
-138 216 -190 325 -95 73 65 92 148 53 238 -24 56 -66 93 -124 109 -50 14 -69
13 -124 -4z" fill="#4464e4"></path>
</g>
</svg>